<svg width="55" height="55" viewBox="0 0 55 55" fill="none" xmlns="http://www.w3.org/2000/svg">
<path fill-rule="evenodd" clip-rule="evenodd" d="M27.5 0C12.3122 0 0 12.3122 0 27.5C0 42.6878 12.3122 55 27.5 55C42.6878 55 55 42.6878 55 27.5C55 12.3122 42.6878 0 27.5 0ZM26 16V36.5858L21.3431 31.9289C20.9526 31.5384 20.3195 31.5384 19.929 31.9289C19.5384 32.3195 19.5384 32.9526 19.929 33.3431L26.2929 39.7071C26.6834 40.0976 27.3166 40.0976 27.7071 39.7071L34.0711 33.3431C34.4616 32.9526 34.4616 32.3195 34.0711 31.9289C33.6805 31.5384 33.0474 31.5384 32.6569 31.9289L28 36.5858V16C28 15.4477 27.5523 15 27 15C26.4478 15 26 15.4477 26 16Z" fill="black"/>
</svg>
