<svg width="45" height="45" viewBox="0 0 45 45" fill="none" xmlns="http://www.w3.org/2000/svg">
<path fill-rule="evenodd" clip-rule="evenodd" d="M45 22.5C45 34.9264 34.9264 45 22.5 45C10.0736 45 0 34.9264 0 22.5C0 10.0736 10.0736 0 22.5 0C34.9264 0 45 10.0736 45 22.5ZM28.6193 14.2534C28.8748 14.0823 29.1753 13.991 29.4827 13.991C29.6859 13.9893 29.8874 14.0278 30.0756 14.1044C30.2638 14.181 30.4349 14.2941 30.5792 14.4372C30.7235 14.5803 30.838 14.7505 30.9161 14.9381C30.9942 15.1256 31.0345 15.3268 31.0345 15.53C31.037 15.8374 30.9481 16.1386 30.7791 16.3955C30.6102 16.6523 30.3687 16.8532 30.0854 16.9726C29.8021 17.092 29.4897 17.1246 29.1879 17.0661C28.886 17.0077 28.6084 16.8609 28.3901 16.6444C28.1718 16.4279 28.0227 16.1515 27.9618 15.8501C27.9009 15.5488 27.9309 15.2361 28.0479 14.9518C28.165 14.6676 28.3639 14.4245 28.6193 14.2534ZM22.6144 15.9751C21.3284 15.9726 20.0706 16.3517 19.0001 17.0643C17.9296 17.7769 17.0946 18.7911 16.6007 19.9785C16.1068 21.1659 15.9763 22.4731 16.2256 23.7347C16.475 24.9963 17.093 26.1556 18.0014 27.0658C18.9099 27.9761 20.0679 28.5963 21.3291 28.8482C22.5902 29.1 23.8976 28.972 25.086 28.4805C26.2744 27.9889 27.2902 27.1559 28.0049 26.0868C28.7196 25.0177 29.1012 23.7606 29.1012 22.4746C29.1012 20.753 28.4181 19.1018 27.202 17.8833C25.9859 16.6647 24.336 15.9785 22.6144 15.9751ZM22.6144 26.6337C21.7882 26.6362 20.9799 26.3933 20.2919 25.9359C19.6039 25.4785 19.0672 24.827 18.7499 24.0642C18.4326 23.3014 18.3489 22.4615 18.5094 21.6511C18.67 20.8406 19.0676 20.0961 19.6518 19.5119C20.236 18.9277 20.9805 18.5301 21.791 18.3696C22.6014 18.209 23.4413 18.2927 24.2041 18.61C24.9669 18.9273 25.6183 19.464 26.0758 20.152C26.5332 20.84 26.7761 21.6484 26.7736 22.4746C26.7702 23.5766 26.3309 24.6325 25.5517 25.4118C24.7724 26.1911 23.7165 26.6303 22.6144 26.6337ZM17.2343 35.6133H27.7657C29.8575 35.6101 31.8633 34.7811 33.3472 33.3068C34.8311 31.8325 35.6729 29.8319 35.6897 27.7402V17.2089C35.6897 15.1061 34.8552 13.0893 33.3696 11.6013C31.8839 10.1132 29.8684 9.27556 27.7657 9.27219H17.2343C15.1316 9.27556 13.1161 10.1132 11.6305 11.6013C10.1448 13.0893 9.31035 15.1061 9.31035 17.2089V27.6894C9.31372 29.7899 10.1496 31.8034 11.6349 33.2887C13.1202 34.774 15.1338 35.61 17.2343 35.6133ZM13.385 13.3596C14.4059 12.3387 15.7905 11.7651 17.2343 11.7651H27.7657C29.2095 11.7651 30.5941 12.3387 31.615 13.3596C32.6359 14.3805 33.2094 15.7651 33.2094 17.2089V27.7402C33.2094 29.184 32.6359 30.5687 31.615 31.5896C30.5941 32.6105 29.2095 33.184 27.7657 33.184H17.2343C15.7905 33.184 14.4059 32.6105 13.385 31.5896C12.3641 30.5687 11.7906 29.184 11.7906 27.7402V17.2089C11.7906 15.7651 12.3641 14.3805 13.385 13.3596Z" fill="white"/>
</svg>
