<svg width="62" height="46" viewBox="0 0 62 46" fill="none" xmlns="http://www.w3.org/2000/svg">
<path d="M7.73772 45.9914C7.01744 46.0283 6.18989 45.9101 5.95345 45.319C5.59879 44.6097 6.30811 43.6639 5.71701 42.9546C3.70725 40.8266 -0.312255 39.8808 0.019318 36.3394C0.019318 36.1045 0.0193159 35.8583 0.0247817 35.6038C0.0424059 33.024 2.99793 32.4329 4.77124 31.0143C5.12591 30.6596 5.48057 30.3049 5.48057 29.9503C5.48057 28.7681 3.94369 28.177 2.99793 27.5859C4.41658 27.5859 5.95345 27.3494 7.3721 27.7041C8.43609 28.0588 10.2094 29.3592 9.02719 30.7778C7.49032 32.4329 4.65302 33.2605 4.40193 35.7492C4.40053 36.0083 4.40053 36.2589 4.40053 36.4981C4.40053 36.857 4.4056 37.1901 4.44672 37.4881C5.00768 39.6444 7.3721 41.2995 9.6183 41.063C9.85474 40.9448 9.85474 40.5902 9.73652 40.4719C9.02719 39.2897 7.72676 38.344 7.9053 36.8304V35.7208C7.72676 33.4969 9.97296 32.3147 10.8005 30.5414C11.8645 28.2952 8.19965 27.113 7.98036 24.8398C7.91434 24.5077 7.9053 24.1734 7.9053 23.8374V0.539429H12.5561V23.7146C12.4556 25.8126 14.1107 27.2312 15.6476 28.5316C16.0022 28.8863 16.4751 29.4774 16.2387 29.9503C15.6476 32.1965 12.5738 32.9058 12.5806 35.5355C12.5561 35.9359 12.5561 36.305 12.5561 36.6392C12.3374 39.1715 15.7658 40.2355 15.884 42.127C16.1204 44.8461 11.2734 45.0826 8.87451 45.8979C8.49822 45.9555 8.11837 45.9868 7.73772 45.9914V45.9914Z" fill="black"/>
<path d="M25.8711 45.4248C26.7603 44.7279 29.1248 43.7821 28.0608 42.2453C26.7603 40.4719 24.3959 40.1173 23.3586 38.1497C23.0476 37.3409 23.0032 36.8016 23.0032 36.8016H19.2289C19.2289 36.8016 19.1977 37.3407 19.3837 38.1489C20.0218 40.1173 22.268 40.7084 23.5684 42.2453C23.6866 42.4817 23.8048 42.8364 23.6866 43.0728C21.9133 45.5554 19.076 45.7919 16.3569 45.319C17.4209 44.6097 18.9578 44.1368 19.076 42.9546C19.1942 41.2995 17.0662 40.7084 16.0022 39.5262C15.4111 38.6986 15.0565 37.8711 15.1791 36.7739C15.2076 36.4903 15.2366 36.2019 15.2686 35.9091C15.2929 35.0338 15.6476 34.4427 16.1205 33.7334C17.3027 31.8418 22.0315 31.0143 19.7853 28.6499C18.6031 27.2312 16.3569 26.1672 16.4641 24.036C16.4958 23.6856 16.5311 23.3349 16.5664 22.9842L18.8244 0.539429H23.8797L26.1039 22.9842C26.1386 23.3349 26.1734 23.6856 26.2169 24.036C26.5239 26.7583 29.4794 27.3494 31.1345 29.241C31.371 29.4774 31.4892 29.8321 31.371 30.1867C30.307 32.3147 26.9968 33.024 27.3847 35.9091L27.4703 36.7739C27.8243 39.6444 31.7256 40.3537 32.3167 42.8364C32.9078 45.319 29.3612 45.7919 27.0895 45.423C26.4047 45.425 25.8711 45.4248 25.8711 45.4248ZM21.3856 11.6606L20.4273 22.7545L20.3459 23.6968C20.0217 26.4037 23.0955 27.2312 24.3959 29.1227C25.3417 30.4232 23.4502 31.3689 22.5044 31.96C23.5684 31.96 24.6324 32.1965 25.4599 31.8418C26.2875 31.4872 27.9426 30.6596 27.2332 29.4774C25.8146 27.2312 22.268 26.7583 22.1454 23.6968L22.0859 22.7545L21.3856 11.6606Z" fill="black"/>
<path d="M39.8002 45.4121C38.1034 45.4116 36.4483 45.4116 34.7932 45.4116C35.739 44.7023 37.3941 43.8747 36.9212 42.8107C35.8572 40.3281 32.0742 39.8552 31.955 36.7482L31.8667 35.8835C31.6013 33.4713 33.8475 32.2891 35.2661 30.8704C35.6208 30.5158 35.739 30.1611 35.6208 29.6882C34.4386 27.3238 31.1284 26.7327 30.6734 24.0104C30.6187 23.66 30.5829 23.3093 30.5471 22.9586L28.2554 0.513794H33.0408L34.6259 23.4706C34.6471 23.7777 34.6693 24.0806 34.7105 24.3789C35.0297 26.4962 37.0394 27.442 38.5763 28.7424C40.2314 30.3975 37.7488 31.698 36.5666 32.6437C37.6305 31.698 39.7585 31.1069 39.4039 29.57C38.931 27.442 36.0937 26.7327 36.0185 24.3789C36.0094 24.0806 36.0333 23.7777 36.0596 23.4706L38.0286 0.513794H42.3423L39.9832 22.9586C39.9463 23.3093 39.9097 23.6599 39.8733 24.0104C39.8767 24.4865 39.8767 24.9594 40.1132 25.4323C41.0589 27.3238 44.0145 27.7967 43.778 29.6882C43.5416 32.5255 38.931 32.6437 38.6247 35.8835L38.5338 36.7482C37.9852 39.5005 41.65 40.3281 42.4776 42.4561C42.9505 43.6383 41.5318 44.2294 40.7608 44.7907C40.1264 45.1963 39.8002 45.4121 39.8002 45.4121Z" fill="black"/>
<path d="M51.8251 45.9991C51.2321 45.9101 50.4045 46.0283 50.0498 45.319C49.577 44.3732 50.1681 43.3092 49.3405 42.5999C47.3308 40.8266 43.5477 39.9991 43.7643 36.7327C43.7643 36.4051 43.7643 36.0315 43.7769 35.6176C43.6659 34.9156 44.0206 34.4427 44.257 33.8516C45.321 32.1965 48.2765 31.7236 47.9219 29.5956C47.449 27.3494 43.7841 26.7583 43.7729 24.0267C43.7643 23.6797 43.7643 23.332 43.7643 22.9842V7.6839C43.7643 3.16808 46.7974 0 50.4371 0C54.0768 0 57.11 3.16808 57.11 7.6839V22.9842C57.11 23.332 57.1102 23.6795 57.1106 24.0267C57.0249 25.1032 57.8524 26.049 58.5617 26.7583C59.6257 27.8223 62.6995 28.8863 61.2808 30.6596C59.9804 32.3147 57.2613 33.1422 57.111 35.6176C57.11 36.0315 57.11 36.4051 57.11 36.7327C57.11 37.2241 57.1103 37.6122 57.1171 37.8787C57.7342 41.1813 57.0249 45.5554 52.8819 45.9273C52.5323 45.9811 52.1787 46.0051 51.8251 45.9991V45.9991ZM52.3918 7.07734C52.3918 5.86388 51.6506 4.9203 50.4371 4.9203C49.1565 4.9203 48.4825 5.86388 48.4825 7.07734V22.9842C48.4825 23.3156 48.4825 23.647 48.4854 23.9778C48.513 26.4037 51.2321 27.4676 52.7689 29.1227C52.8871 29.3592 53.2418 29.8321 53.0054 30.1867C51.7049 32.1965 48.9859 32.7876 48.4977 35.324C48.4825 35.7613 48.4825 36.1663 48.4825 36.5346C48.4825 36.9028 48.4891 37.2342 48.5324 37.5241C48.9859 39.6444 51.9414 41.8906 53.36 40.7084C54.1876 39.9991 52.5325 38.6986 52.443 37.5258C52.3982 37.2342 52.3918 36.9028 52.3918 36.5346C52.3918 36.1663 52.3918 35.7613 52.4088 35.324C52.6507 34.6791 52.8871 34.088 53.2418 33.4969C54.424 32.0783 57.0249 31.4872 56.7884 29.7138C56.4338 27.3494 52.296 26.8765 52.3919 23.9778C52.3918 23.647 52.3917 23.3158 52.3918 22.9842V7.07734Z" fill="black"/>
</svg>
